# xmcd CD database file
#
# Track frame offsets:
#	150
#	15844
#	30603
#	45112
#	59272
#	73853
#	88917
#	101516
#	114793
#	128304
#	142887
#	158837
#	173622
#	188177
#	201446
#	214963
#	227926
#	242727
#
# Disc length: 3412 seconds
#
# Revision: 1
# Processed by: cddbd v1.5.1PL0 Copyright (c) Steve Scherf et al.
# Submitted via: CDex 1.51
#
DISCID=e70d5212
DTITLE=Tommy Dorsey - Quadromenia - CD 3
DYEAR=2005
DGENRE=Jazz
TTITLE0=The Song Is You - 1946
TTITLE1=Come Rain Or Come Shine - 1946
TTITLE2=Hollywood Hat - 1946
TTITLE3=Then I'll Be Happy - 1946
TTITLE4=Tom Foolery - 1946
TTITLE5=Bingo, Bango, Boffo - 1946
TTITLE6=At Sundown - 1946
TTITLE7=How Are Things In Glocca Morra? - 1946
TTITLE8=Trombonology 1947
TTITLE9=Drumology - 1947
TTITLE10=The Continental - 1947
TTITLE11=Puddle Wump - 1947
TTITLE12=Pussy Willow - 1949
TTITLE13=The Hucklebuck - 1949
TTITLE14=Summertime 1949
TTITLE15=I Get A Kick Out Of You - 1950
TTITLE16=Comin' Through The Rye - 1950
TTITLE17=Birmingham Bounce - 1950
EXTD=YEAR: 2005
EXTT0=
EXTT1=
EXTT2=
EXTT3=
EXTT4=
EXTT5=
EXTT6=
EXTT7=
EXTT8=
EXTT9=
EXTT10=
EXTT11=
EXTT12=
EXTT13=
EXTT14=
EXTT15=
EXTT16=
EXTT17=
PLAYORDER=
